<svg width="600" height="700" viewBox="0 0 600 700" fill="none" xmlns="http://www.w3.org/2000/svg">
<path d="M300 350C334.612 350 368.446 339.737 397.225 320.507C426.003 301.278 448.434 273.947 461.679 241.97C474.924 209.993 478.39 174.806 471.637 140.859C464.885 106.913 448.218 75.7306 423.744 51.2564C399.269 26.7822 368.088 10.1151 334.141 3.36265C300.194 -3.38976 265.007 0.0758246 233.03 13.3212C201.053 26.5665 173.722 48.9967 154.493 77.7753C135.264 106.554 125 140.388 125 175C125 221.413 143.437 265.925 176.256 298.744C209.075 331.563 253.587 350 300 350ZM300 50.0001C324.723 50.0001 348.89 57.3312 369.446 71.0664C390.002 84.8016 406.024 104.324 415.485 127.165C424.946 150.005 427.421 175.139 422.598 199.386C417.775 223.634 405.87 245.907 388.388 263.388C370.907 280.87 348.634 292.775 324.386 297.598C300.139 302.421 275.005 299.946 252.165 290.485C229.324 281.024 209.801 265.002 196.066 244.446C182.331 223.89 175 199.723 175 175C175 141.848 188.17 110.054 211.612 86.6117C235.054 63.1697 266.848 50.0001 300 50.0001Z" fill="black"/>
<path d="M325 400H275C202.065 400 132.118 428.973 80.5456 480.546C28.9731 532.118 0 602.065 0 675C0 681.63 2.63393 687.989 7.32234 692.678C12.0107 697.366 18.3696 700 25 700H575C581.63 700 587.989 697.366 592.678 692.678C597.366 687.989 600 681.63 600 675C600 602.065 571.027 532.118 519.454 480.546C467.882 428.973 397.935 400 325 400ZM51.5 650C57.6474 595.016 83.8378 544.225 125.067 507.331C166.296 470.436 219.673 450.026 275 450H325C380.327 450.026 433.704 470.436 474.933 507.331C516.162 544.225 542.353 595.016 548.5 650H51.5Z" fill="black"/>
</svg>
