<svg width="750" height="732" viewBox="0 0 750 732" fill="none" xmlns="http://www.w3.org/2000/svg">
<path d="M374.9 0.0250012C167.85 0.0250012 0 167.875 0 374.925C0 539.55 106.125 679.425 253.7 729.8L256.35 730.575C275.1 734.1 281.975 722.525 281.975 712.55C281.975 703.65 281.675 680.05 281.5 648.825C177.225 671.45 155.225 598.525 155.225 598.525C148.025 575.4 133.275 556.4 113.9 543.925L113.5 543.7C79.55 520.45 116.125 520.925 116.125 520.925C140.8 524.4 161.475 538.875 173.35 559.175L173.55 559.55C187.4 584.425 213.55 600.975 243.575 600.975C257.975 600.975 271.475 597.175 283.125 590.5L282.725 590.7C284.525 570.925 293.25 553.475 306.45 540.575L306.475 540.55C223.225 531.175 135.7 498.925 135.7 355.3C135.7 354.625 135.675 353.85 135.675 353.075C135.675 315.05 150.35 280.45 174.35 254.625L174.275 254.725C169.2 241.175 166.25 225.525 166.25 209.2C166.25 189.775 170.4 171.3 177.875 154.65L177.525 155.5C177.525 155.5 208.925 145.45 280.625 193.925C308.725 185.9 341 181.275 374.35 181.275C407.7 181.275 439.975 185.9 470.575 194.525L468.075 193.925C539.3 145.45 570.7 155.5 570.7 155.5C577.825 171.55 581.975 190.25 581.975 209.925C581.975 225.975 579.225 241.375 574.15 255.675L574.45 254.725C598.275 280.525 612.9 315.125 612.9 353.15C612.9 353.925 612.9 354.675 612.875 355.425V355.3C612.875 499.325 525.25 531.025 441.825 540.25C457.625 556.425 467.375 578.55 467.375 602.975C467.375 605.3 467.275 607.625 467.1 609.925L467.125 609.625C467.125 659.8 466.65 700.1 466.65 712.275C466.65 722.125 473.2 733.825 492.425 730.075C643.125 679.35 749.725 539.35 749.725 374.425C749.725 167.625 582.075 0 375.3 0C375.15 0 374.975 0 374.825 0H374.85L374.9 0.0250012Z" fill="white"/>
</svg>
