<svg width="534" height="635" viewBox="0 0 534 635" fill="none" xmlns="http://www.w3.org/2000/svg">
<path fill-rule="evenodd" clip-rule="evenodd" d="M118.667 446.333C99.807 434.832 77.5386 430.237 55.6667 433.333H0V633.333H44.3333V557H63.3333C83.0164 559.022 102.795 554.195 119.333 543.333C133.371 531.292 141.111 513.478 140.333 495C141.373 476.235 133.307 458.118 118.667 446.333ZM83 519.333C74.6264 523.019 65.4199 524.4 56.3333 523.333H43.3333V466.667H56.3333C65.7731 465.663 75.2965 467.521 83.6667 472C91.4618 477.429 95.8792 486.516 95.3333 496C96.3432 505.561 91.4688 514.783 83 519.333ZM235.667 433.333H180.333V633.333H233.333C260.344 635.976 287.543 630.768 311.667 618.333C338.211 598.551 352.391 566.264 349 533.333C350.987 505.121 340.935 477.387 321.333 457C297.121 437.916 266.243 429.385 235.667 433.333ZM279.667 588C265.78 595.806 249.878 599.288 234 598H225.333V468.667H233.333C261.333 468.667 272.333 471.333 283.333 481.333C296.683 495.232 303.578 514.102 302.333 533.333C304.048 554.147 295.606 574.507 279.667 588ZM397.667 633.333H442.667V549.667H533.333V514.333H442.667V468.667H533.333V433.333H397.667V633.333ZM366.667 0H0V366.667H66.6667V300V265V66.6667H339L466.667 194.333V265V300V366.667H533.333V166.667L366.667 0Z" fill="white"/>
</svg>
