<?xml version="1.0" encoding="iso-8859-1"?>
<!-- Uploaded to: SVG Repo, www.svgrepo.com, Generator: SVG Repo Mixer Tools -->
<svg fill="#000000" height="800px" width="800px" version="1.1" id="Layer_1" xmlns="http://www.w3.org/2000/svg" xmlns:xlink="http://www.w3.org/1999/xlink" 
	 viewBox="0 0 511.999 511.999" xml:space="preserve">
<g>
	<g>
		<g>
			<path d="M255.999,0.001C114.84,0.001,0,114.84,0,255.999c0,141.158,114.84,255.999,255.999,255.999s256-114.841,256-255.999
				C512,114.84,397.159,0.001,255.999,0.001z M255.999,490.664c-129.394,0-234.664-105.269-234.664-234.664
				S126.605,21.334,255.999,21.334c129.396,0,234.665,105.27,234.665,234.664S385.395,490.664,255.999,490.664z"/>
			<path d="M287.999,255.999c0-17.645-14.355-32-32-32c-17.644,0-31.999,14.355-31.999,32s14.355,32,31.999,32
				C273.644,288,287.999,273.644,287.999,255.999z M245.335,255.999c0-5.882,4.783-10.665,10.664-10.665
				c5.881,0,10.665,4.783,10.665,10.665c0,5.88-4.784,10.665-10.665,10.665C250.119,266.665,245.335,261.879,245.335,255.999z"/>
			<path d="M330.668,255.999c0-41.172-33.496-74.668-74.669-74.668c-41.173,0-74.669,33.496-74.669,74.668
				c0,41.17,33.496,74.666,74.669,74.666C297.172,330.665,330.668,297.169,330.668,255.999z M202.665,255.999
				c0-29.408,23.926-53.333,53.334-53.333c29.408,0,53.334,23.925,53.334,53.333c0,29.406-23.926,53.331-53.334,53.331
				C226.591,309.33,202.665,285.405,202.665,255.999z"/>
			<path d="M131.001,245.332H64.299c4.876-89.873,71.006-164.212,160.849-178.837c5.815-0.946,9.761-6.427,8.816-12.242
				c-0.946-5.815-6.427-9.761-12.243-8.816c-49.927,8.128-95.469,33.825-128.24,72.361s-50.817,87.617-50.817,138.202
				c0,5.889,4.776,10.667,10.667,10.667H131c5.891,0,10.667-4.778,10.667-10.667C141.669,250.108,136.892,245.332,131.001,245.332z"
				/>
			<path d="M458.667,245.332h-77.668c-5.892,0-10.667,4.776-10.667,10.667c0,5.889,4.776,10.667,10.667,10.667h66.7
				c-4.876,89.873-71.006,164.212-160.849,178.835c-5.815,0.948-9.761,6.427-8.816,12.243c0.852,5.236,5.38,8.957,10.515,8.957
				c0.57,0,1.147-0.046,1.727-0.142c49.927-8.128,95.47-33.825,128.241-72.359c32.769-38.536,50.816-87.617,50.816-138.202
				C469.335,250.108,464.559,245.332,458.667,245.332z"/>
			<path d="M254.6,64.004c0.032,0,0.066,0,0.098,0C255.132,64,255.569,63.998,256,64c5.891,0,10.667-4.778,10.667-10.667
				c0-5.892-4.777-10.667-10.667-10.667c-0.495,0-0.997,0-1.493,0.004c-5.891,0.052-10.624,4.871-10.571,10.763
				C243.989,59.292,248.755,64.004,254.6,64.004z"/>
			<path d="M257.397,447.996L255.999,448c-5.891,0-10.667,4.776-10.667,10.667c0,5.891,4.777,10.667,10.667,10.667l1.399-0.004
				c5.892,0,10.667-4.777,10.667-10.667C268.065,452.772,263.289,447.996,257.397,447.996z"/>
		</g>
	</g>
</g>
</svg>