<svg width="800" height="800" viewBox="0 0 800 800" fill="none" xmlns="http://www.w3.org/2000/svg">
<path d="M399.999 0C179.438 0 0 179.436 0 399.998C0 620.557 179.438 799.997 399.999 799.997C620.561 799.997 800 620.557 800 399.998C800.002 179.436 620.562 0 399.999 0ZM399.999 766.662C197.821 766.662 33.336 602.179 33.336 399.999C33.336 197.819 197.821 33.3329 399.999 33.3329C602.181 33.3329 766.664 197.818 766.664 399.996C766.664 602.175 602.181 766.662 399.999 766.662Z" fill="white"/>
<path d="M450 399.996C450 372.426 427.57 349.996 400 349.996C372.431 349.996 350.001 372.426 350.001 399.996C350.001 427.567 372.431 449.996 400 449.996C427.57 449.998 450 427.567 450 399.996ZM383.337 399.996C383.337 390.806 390.81 383.332 400 383.332C409.189 383.332 416.664 390.806 416.664 399.996C416.664 409.184 409.189 416.66 400 416.66C390.812 416.662 383.337 409.184 383.337 399.996Z" fill="white"/>
<path d="M516.67 399.997C516.67 335.666 464.333 283.328 400 283.328C335.667 283.328 283.329 335.666 283.329 399.997C283.329 464.325 335.667 516.663 400 516.663C464.333 516.663 516.67 464.325 516.67 399.997ZM316.665 399.997C316.665 354.047 354.05 316.664 400 316.664C445.95 316.664 483.334 354.047 483.334 399.997C483.334 445.944 445.95 483.327 400 483.327C354.05 483.327 316.665 445.944 316.665 399.997Z" fill="white"/>
<path d="M204.69 383.332H100.468C108.087 242.905 211.415 126.751 351.795 103.899C360.881 102.421 367.046 93.8568 365.57 84.7708C364.092 75.6848 355.528 69.5192 346.44 70.9958C268.429 83.6958 197.27 123.847 146.065 184.06C94.86 244.273 66.6631 320.962 66.6631 400.001C66.6631 409.203 74.1256 416.668 83.3303 416.668H204.688C213.893 416.668 221.356 409.203 221.356 400.001C221.359 390.795 213.895 383.332 204.69 383.332Z" fill="white"/>
<path d="M716.669 383.332H595.312C586.106 383.332 578.645 390.795 578.645 399.999C578.645 409.201 586.108 416.666 595.312 416.666H699.531C691.913 557.093 588.584 673.248 448.204 696.097C439.118 697.578 432.953 706.139 434.429 715.226C435.761 723.408 442.836 729.222 450.859 729.222C451.75 729.222 452.651 729.15 453.558 729C531.569 716.3 602.73 676.148 653.934 615.939C705.136 555.726 733.335 479.037 733.335 399.998C733.338 390.795 725.875 383.332 716.669 383.332Z" fill="white"/>
<path d="M397.814 100.005C397.864 100.005 397.917 100.005 397.967 100.005C398.645 99.9985 399.328 99.9954 400.001 99.9985C409.206 99.9985 416.668 92.5329 416.668 83.3313C416.668 74.125 409.204 66.6641 400.001 66.6641C399.228 66.6641 398.443 66.6641 397.668 66.6703C388.464 66.7516 381.068 74.2813 381.151 83.4875C381.234 92.6422 388.681 100.005 397.814 100.005Z" fill="white"/>
<path d="M402.184 699.992L399.999 699.998C390.795 699.998 383.332 707.461 383.332 716.666C383.332 725.87 390.796 733.333 399.999 733.333L402.185 733.327C411.391 733.327 418.852 725.863 418.852 716.659C418.852 707.455 411.39 699.992 402.184 699.992Z" fill="white"/>
</svg>
