<svg width="1176" height="1176" viewBox="0 0 1176 1176" fill="none" xmlns="http://www.w3.org/2000/svg">
<g clip-path="url(#clip0_320_1196)">
<path d="M1156.4 0H19.6C7.84 0 0 7.84 0 19.6V921.2C0 932.96 7.84 940.8 19.6 940.8H98V1156.4C98 1168.16 105.84 1176 117.6 1176H1058.4C1070.16 1176 1078 1168.16 1078 1156.4V940.8H1156.4C1168.16 940.8 1176 932.96 1176 921.2V19.6C1176 7.84 1168.16 0 1156.4 0ZM1136.8 39.2V156.8H39.2V39.2H1136.8ZM1038.8 470.4H137.2V352.8H1038.8V470.4ZM137.2 1136.8V509.6H1038.8V1136.8H137.2ZM1078 901.6V333.2C1078 321.44 1070.16 313.6 1058.4 313.6H117.6C105.84 313.6 98 321.44 98 333.2V901.6H39.2V196H1136.8V901.6H1078Z" fill="white"/>
<path d="M156.8 78.3984H78.4004V117.598H156.8V78.3984Z" fill="white"/>
<path d="M274.4 78.3984H196V117.598H274.4V78.3984Z" fill="white"/>
<path d="M254.8 392H176.4V431.2H254.8V392Z" fill="white"/>
<path d="M372.4 392H294V431.2H372.4V392Z" fill="white"/>
<path d="M1097.6 78.3984H1058.4V117.598H1097.6V78.3984Z" fill="white"/>
<path d="M1019.2 78.3984H980V117.598H1019.2V78.3984Z" fill="white"/>
<path d="M999.6 392H960.4V431.2H999.6V392Z" fill="white"/>
<path d="M921.2 392H882V431.2H921.2V392Z" fill="white"/>
<path d="M215.6 921.198H529.2C540.96 921.198 548.8 913.358 548.8 901.598V587.998C548.8 576.238 540.96 568.398 529.2 568.398H215.6C203.84 568.398 196 576.238 196 587.998V901.598C196 913.358 203.84 921.198 215.6 921.198ZM235.2 764.398H352.8V881.998H235.2V764.398ZM392 881.998V764.398H509.6V881.998H392ZM509.6 725.198H392V607.598H509.6V725.198ZM352.8 607.598V725.198H235.2V607.598H352.8Z" fill="white"/>
<path d="M686 568.398H607.6V607.598H686V568.398Z" fill="white"/>
<path d="M646.8 646.801H607.6V686.001H646.8V646.801Z" fill="white"/>
<path d="M725.2 646.801H686V686.001H725.2V646.801Z" fill="white"/>
<path d="M803.6 646.801H764.4V686.001H803.6V646.801Z" fill="white"/>
<path d="M882 646.801H842.8V686.001H882V646.801Z" fill="white"/>
<path d="M960.4 646.801H921.2V686.001H960.4V646.801Z" fill="white"/>
<path d="M823.2 568.398H744.8V607.598H823.2V568.398Z" fill="white"/>
<path d="M960.4 568.398H882V607.598H960.4V568.398Z" fill="white"/>
<path d="M960.4 725.199H607.6V764.399H960.4V725.199Z" fill="white"/>
<path d="M960.4 803.602H607.6V842.802H960.4V803.602Z" fill="white"/>
<path d="M960.4 882H607.6V921.2H960.4V882Z" fill="white"/>
<path d="M235.2 999.602H196V1038.8H235.2V999.602Z" fill="white"/>
<path d="M313.6 999.602H274.4V1038.8H313.6V999.602Z" fill="white"/>
<path d="M392 999.602H352.8V1038.8H392V999.602Z" fill="white"/>
<path d="M960.4 999.602H431.2V1038.8H960.4V999.602Z" fill="white"/>
</g>
<defs>
<clipPath id="clip0_320_1196">
<rect width="1176" height="1176" fill="white"/>
</clipPath>
</defs>
</svg>
