<svg width="734" height="668" viewBox="0 0 734 668" fill="none" xmlns="http://www.w3.org/2000/svg">
<path d="M700.667 234H34M167.333 517.333L250.667 434L167.333 350.667M334 517.333H467.333M34 194V474C34 530.007 34 558.007 44.8993 579.4C54.4867 598.217 69.7847 613.513 88.601 623.1C109.992 634 137.995 634 194 634H540.667C596.673 634 624.673 634 646.067 623.1C664.883 613.513 680.18 598.217 689.767 579.4C700.667 558.007 700.667 530.007 700.667 474V194C700.667 137.995 700.667 109.992 689.767 88.601C680.18 69.7847 664.883 54.4867 646.067 44.8993C624.673 34 596.673 34 540.667 34H194C137.995 34 109.992 34 88.601 44.8993C69.7847 54.4867 54.4867 69.7847 44.8993 88.601C34 109.992 34 137.995 34 194Z" stroke="white" stroke-width="66.6667" stroke-linecap="round" stroke-linejoin="round"/>
</svg>
