<?xml version="1.0" standalone="no"?>
<!DOCTYPE svg PUBLIC "-//W3C//DTD SVG 20010904//EN"
 "http://www.w3.org/TR/2001/REC-SVG-20010904/DTD/svg10.dtd">
<svg version="1.0" xmlns="http://www.w3.org/2000/svg"
 width="1216.000000pt" height="1216.000000pt" viewBox="0 0 1216.000000 1216.000000"
 preserveAspectRatio="xMidYMid meet">
<metadata>
Created by potrace 1.14, written by Peter Selinger 2001-2017
</metadata>
<g transform="translate(0.000000,1216.000000) scale(0.100000,-0.100000)"
fill="#000000" stroke="none">
<path d="M5816 12153 c-2 -2 -43 -6 -92 -9 -127 -8 -223 -16 -324 -29 -30 -4
-68 -8 -85 -9 -16 -2 -44 -6 -60 -10 -17 -3 -48 -9 -70 -12 -22 -2 -52 -7 -67
-9 -16 -3 -40 -7 -56 -9 -15 -2 -36 -6 -47 -9 -19 -5 -81 -17 -115 -21 -9 -1
-21 -5 -28 -10 -6 -4 -16 -4 -22 -1 -5 3 -16 3 -22 -1 -7 -5 -19 -9 -28 -10
-8 -1 -26 -5 -40 -9 -24 -6 -52 -12 -95 -20 -11 -2 -21 -4 -22 -5 -2 -2 -7 -4
-13 -5 -5 -1 -11 -4 -12 -5 -2 -1 -12 -4 -23 -6 -11 -2 -38 -8 -60 -14 -22 -6
-47 -13 -55 -15 -8 -2 -15 -4 -15 -5 0 -1 -8 -3 -17 -6 -10 -2 -26 -6 -35 -8
-10 -3 -19 -5 -20 -6 -2 -2 -7 -4 -13 -5 -5 -1 -13 -4 -17 -5 -5 -1 -12 -3
-18 -5 -5 -1 -13 -3 -17 -5 -5 -1 -12 -4 -18 -5 -5 -1 -12 -4 -15 -5 -3 -1 -8
-3 -12 -4 -5 -2 -28 -8 -53 -16 -25 -7 -48 -13 -52 -12 -5 1 -8 -2 -8 -8 0 -6
-3 -9 -7 -8 -13 2 -67 -14 -81 -25 -7 -5 -15 -7 -18 -4 -4 3 -24 -3 -45 -13
-21 -11 -45 -20 -54 -20 -8 0 -15 -5 -15 -11 0 -5 -4 -8 -8 -5 -4 2 -21 -1
-37 -9 -47 -20 -69 -28 -77 -27 -5 1 -8 -2 -8 -6 0 -5 -6 -9 -12 -9 -7 0 -30
-7 -51 -16 -20 -9 -40 -16 -42 -16 -3 0 -20 -8 -38 -18 -17 -9 -34 -18 -37
-18 -3 -1 -18 -8 -35 -15 -16 -7 -33 -13 -37 -12 -5 1 -8 -3 -8 -9 0 -5 -4 -7
-10 -4 -5 3 -10 1 -10 -5 0 -6 -4 -8 -10 -5 -5 3 -10 1 -10 -5 0 -6 -4 -8 -10
-5 -5 3 -10 1 -10 -4 0 -6 -3 -10 -7 -9 -10 2 -41 -10 -68 -25 -11 -6 -38 -19
-60 -30 -22 -11 -49 -27 -59 -36 -11 -9 -16 -10 -12 -4 5 9 2 11 -8 7 -8 -3
-17 -12 -20 -20 -3 -9 -10 -12 -16 -9 -5 3 -10 1 -10 -4 0 -6 -6 -11 -14 -11
-17 0 -89 -40 -94 -52 -2 -5 -8 -6 -13 -2 -5 3 -9 0 -9 -6 0 -6 -4 -8 -10 -5
-5 3 -10 1 -10 -6 0 -7 -3 -9 -7 -6 -3 4 -12 -1 -20 -11 -10 -11 -12 -12 -8
-2 4 10 2 9 -8 -2 -8 -10 -17 -15 -20 -11 -4 3 -7 1 -7 -5 0 -7 -7 -12 -15
-12 -8 0 -15 -4 -15 -9 0 -5 -11 -12 -25 -15 -14 -4 -25 -11 -25 -17 0 -6 -4
-7 -10 -4 -6 3 -10 1 -10 -5 0 -6 -4 -9 -8 -6 -5 3 -21 -7 -37 -22 -16 -15
-31 -25 -32 -22 -1 3 -11 -3 -22 -12 -11 -9 -22 -14 -25 -11 -3 3 -8 -2 -12
-11 -3 -9 -10 -13 -15 -10 -5 3 -12 -2 -15 -10 -3 -9 -10 -13 -15 -10 -5 3
-12 -2 -15 -10 -3 -9 -10 -13 -15 -10 -5 3 -12 -1 -15 -9 -3 -9 -16 -18 -30
-21 -13 -4 -24 -11 -24 -16 0 -6 -7 -10 -15 -10 -9 0 -18 -7 -21 -15 -4 -8
-10 -12 -15 -9 -5 3 -9 0 -9 -5 0 -6 -5 -11 -11 -11 -16 0 -59 -36 -52 -44 3
-3 -1 -6 -10 -6 -9 0 -17 -4 -17 -8 0 -5 -12 -14 -27 -21 -15 -7 -33 -21 -41
-32 -7 -10 -19 -19 -26 -19 -7 0 -27 -15 -46 -32 -18 -18 -30 -26 -26 -18 5 8
-3 3 -16 -12 -14 -15 -28 -25 -32 -21 -3 3 -6 -2 -6 -12 0 -10 -3 -16 -6 -12
-3 3 -17 -6 -31 -21 -15 -15 -20 -18 -13 -7 7 11 -4 2 -24 -20 -20 -22 -36
-36 -36 -31 0 5 -16 -9 -36 -30 -20 -22 -33 -32 -29 -24 5 8 -10 -4 -33 -27
-23 -24 -45 -43 -49 -43 -4 0 -28 -20 -52 -45 -24 -25 -48 -45 -53 -45 -5 0
-7 -4 -3 -10 3 -5 -7 -17 -22 -27 -37 -22 -168 -155 -176 -177 -4 -10 -16 -20
-27 -23 -11 -3 -18 -8 -16 -12 3 -4 -13 -22 -34 -40 -22 -19 -37 -38 -34 -43
3 -4 2 -7 -3 -6 -4 2 -8 1 -8 -2 0 -11 -30 -38 -38 -33 -4 2 -7 0 -7 -6 0 -6
-12 -22 -27 -37 -16 -15 -21 -23 -13 -19 8 4 0 -6 -17 -22 -18 -16 -33 -32
-33 -36 0 -4 -15 -21 -32 -38 -18 -17 -26 -27 -18 -23 8 4 0 -7 -19 -25 -19
-17 -32 -31 -28 -31 3 0 -4 -11 -16 -24 -55 -59 -71 -79 -57 -72 8 5 2 -4 -15
-19 -16 -14 -23 -23 -15 -19 8 5 -2 -9 -22 -30 -21 -22 -38 -45 -38 -53 0 -7
-4 -13 -8 -13 -5 0 -24 -24 -42 -52 -19 -29 -36 -55 -39 -58 -21 -18 -44 -52
-31 -45 8 5 3 -4 -13 -20 -15 -15 -30 -39 -33 -51 -3 -13 -10 -22 -14 -19 -4
3 -15 -10 -23 -28 -9 -18 -27 -49 -41 -70 -14 -21 -26 -42 -26 -47 0 -6 -5
-10 -11 -10 -5 0 -7 -4 -4 -10 3 -5 1 -10 -5 -10 -6 0 -15 -12 -20 -26 -6 -15
-20 -40 -31 -55 -11 -16 -17 -29 -12 -29 4 0 3 -4 -3 -8 -15 -9 -117 -193
-117 -209 0 -7 -4 -13 -8 -13 -8 0 -132 -249 -132 -267 0 -7 -4 -13 -8 -13 -4
0 -11 -10 -15 -22 -3 -13 -17 -45 -29 -73 -64 -141 -74 -168 -69 -176 3 -5 1
-9 -3 -9 -9 0 -37 -65 -38 -85 0 -5 -3 -12 -6 -15 -3 -3 -13 -25 -22 -50 -71
-204 -89 -259 -120 -360 -20 -63 -39 -128 -43 -145 -10 -41 -9 -38 -17 -60 -3
-11 -9 -31 -12 -45 -2 -14 -21 -92 -40 -173 -19 -82 -34 -152 -33 -155 1 -4
-2 -14 -5 -22 -6 -15 -31 -148 -42 -225 -4 -22 -8 -51 -10 -65 -14 -85 -46
-372 -52 -465 -14 -224 -8 -716 12 -910 2 -22 6 -69 9 -105 3 -36 15 -123 26
-195 11 -71 22 -150 25 -175 3 -25 8 -52 11 -60 3 -8 8 -33 11 -55 2 -21 7
-43 9 -47 3 -5 8 -24 10 -43 2 -19 11 -65 20 -102 9 -37 18 -81 21 -98 3 -16
9 -32 14 -33 5 -2 7 -7 4 -12 -3 -4 1 -28 9 -53 8 -25 11 -48 8 -51 -3 -4 0
-6 7 -6 7 0 10 -4 7 -9 -3 -4 4 -39 15 -77 35 -115 108 -341 121 -371 6 -15
12 -35 14 -43 2 -9 11 -34 20 -55 10 -22 19 -49 21 -60 2 -10 7 -22 11 -25 4
-3 9 -14 10 -25 2 -11 7 -22 10 -25 4 -3 9 -14 10 -25 2 -11 7 -22 10 -25 4
-3 8 -10 9 -16 5 -26 87 -210 97 -216 6 -4 8 -8 4 -8 -7 0 48 -118 82 -180 8
-14 15 -27 16 -30 1 -3 5 -15 9 -28 4 -12 12 -22 17 -22 5 0 6 -4 3 -10 -3 -5
-1 -10 4 -10 6 0 11 -6 11 -14 0 -8 6 -21 13 -28 7 -7 15 -17 17 -23 9 -29 35
-75 42 -75 5 0 7 -4 4 -9 -3 -5 8 -27 24 -50 17 -22 31 -44 31 -48 4 -24 20
-53 29 -53 6 0 8 -4 5 -10 -3 -5 -3 -10 2 -10 4 0 14 -14 22 -32 8 -17 22 -39
33 -50 10 -10 18 -20 18 -23 0 -3 0 -9 0 -14 0 -4 12 -21 27 -36 16 -16 21
-25 13 -21 -8 4 -6 -1 6 -11 11 -10 21 -22 22 -28 1 -5 8 -17 16 -27 8 -9 12
-19 9 -22 -3 -3 2 -8 11 -12 9 -3 16 -12 16 -20 0 -8 5 -14 11 -14 5 0 7 -5 4
-10 -3 -6 1 -13 9 -16 9 -3 16 -12 16 -20 0 -8 5 -14 10 -14 6 0 10 -4 10 -10
0 -10 22 -39 55 -73 12 -11 14 -17 5 -13 -8 4 -3 -4 12 -17 15 -14 25 -27 23
-29 -3 -2 9 -19 25 -36 16 -18 27 -32 25 -32 -6 0 22 -35 52 -67 13 -13 23
-26 23 -28 0 -4 9 -16 52 -67 10 -12 18 -26 18 -31 0 -6 3 -7 6 -4 4 3 20 -12
35 -33 16 -22 34 -40 39 -40 6 0 9 -4 8 -8 -4 -11 49 -72 56 -65 3 4 6 2 6 -4
0 -6 13 -26 30 -44 16 -19 30 -37 30 -41 0 -5 7 -8 16 -8 8 0 13 -4 9 -9 -3
-5 4 -12 15 -16 11 -4 18 -11 15 -16 -4 -5 2 -9 11 -9 10 0 14 -3 11 -7 -10
-9 14 -34 26 -26 5 3 8 2 5 -3 -7 -11 137 -155 146 -147 3 4 6 -1 6 -10 0 -10
3 -17 8 -17 4 0 32 -24 63 -53 30 -28 77 -70 103 -92 27 -22 60 -52 74 -67 14
-16 29 -28 33 -28 5 0 19 -10 32 -22 22 -21 70 -62 104 -89 7 -5 13 -7 13 -3
0 4 9 -5 21 -20 11 -14 27 -26 35 -26 8 0 14 -5 14 -12 0 -6 3 -8 6 -5 4 3 15
-5 26 -18 11 -14 24 -25 29 -25 5 0 15 -5 22 -10 56 -48 72 -58 80 -53 6 3 7
2 4 -4 -3 -5 16 -23 43 -39 27 -16 50 -33 50 -37 0 -5 4 -6 9 -3 5 3 12 -1 15
-10 3 -8 10 -12 16 -9 5 3 10 2 10 -3 0 -11 71 -57 83 -54 4 1 7 -2 7 -8 0 -5
7 -10 15 -10 8 0 15 -4 15 -10 0 -5 7 -10 15 -10 8 0 15 -4 15 -8 0 -5 19 -18
42 -31 54 -27 78 -43 96 -59 7 -7 17 -10 22 -7 5 3 10 2 12 -3 5 -12 78 -52
95 -52 9 0 14 -3 10 -6 -3 -4 17 -19 46 -34 108 -58 182 -94 190 -92 4 1 7 -2
7 -7 0 -10 39 -27 53 -23 4 1 7 -2 7 -8 0 -5 9 -10 19 -10 11 0 21 -4 23 -9 6
-16 362 -166 588 -248 237 -85 717 -216 835 -228 6 0 25 -4 43 -9 19 -4 43 -9
55 -11 21 -2 52 -8 122 -21 17 -3 59 -9 95 -14 36 -5 79 -11 95 -14 55 -9 109
-16 180 -22 39 -3 84 -7 100 -10 182 -23 818 -23 987 1 18 2 60 7 93 10 33 3
76 7 95 10 19 2 55 6 80 9 25 3 69 10 98 15 29 6 56 10 60 10 4 -1 9 0 12 1 3
1 16 3 30 5 26 3 87 13 124 21 11 2 36 7 55 10 18 3 41 7 50 10 9 2 34 8 56
13 22 6 56 13 75 16 19 4 40 8 45 9 6 1 16 5 23 9 6 5 12 6 12 3 0 -2 29 4 65
14 36 10 68 19 70 19 3 1 6 1 8 2 1 0 9 2 17 4 8 2 42 11 75 21 33 9 67 17 76
19 8 2 32 10 52 19 20 8 37 13 37 10 0 -2 14 2 30 11 17 9 30 13 30 11 0 -3
19 2 43 10 23 9 47 17 52 18 6 2 17 6 25 9 8 4 42 16 75 27 33 12 67 24 75 27
8 4 17 7 20 8 3 1 18 7 33 13 16 7 30 12 31 12 2 0 21 8 42 17 22 9 41 17 44
18 19 6 69 27 90 39 14 8 27 14 30 14 11 1 59 22 163 70 59 28 108 51 110 50
1 -1 21 11 45 25 23 15 42 25 42 22 0 -2 23 9 50 25 28 17 55 30 60 30 6 0 10
5 10 10 0 6 3 9 8 8 6 -2 44 17 94 47 10 5 59 34 110 64 51 29 96 58 100 65 4
6 8 8 8 4 0 -5 206 126 275 176 59 42 344 258 370 280 17 14 35 29 40 33 105
81 460 418 575 548 231 261 382 453 548 701 224 335 359 581 547 999 222 492
417 1229 471 1780 3 39 8 78 10 88 21 115 25 830 5 1017 -6 63 -14 138 -17
165 -41 393 -159 915 -295 1312 -47 136 -153 406 -199 508 -73 158 -173 359
-215 431 -25 41 -45 79 -45 84 0 4 -7 13 -15 20 -9 7 -13 15 -11 18 3 2 -7 23
-22 46 -35 54 -47 73 -72 116 -11 19 -29 49 -40 65 -11 17 -25 40 -31 53 -7
12 -16 22 -21 22 -4 0 -8 5 -8 11 0 5 -19 37 -42 71 -24 33 -47 68 -53 77 -12
20 -177 244 -185 251 -3 3 -19 23 -35 45 -17 22 -56 72 -89 110 -32 39 -80 95
-105 124 -164 195 -466 488 -676 657 -33 26 -62 51 -65 54 -3 4 -50 40 -105
81 -55 41 -101 77 -103 82 -2 4 -8 7 -13 7 -5 0 -20 10 -34 22 -37 32 -255
178 -266 178 -5 0 -9 4 -9 9 0 5 -8 11 -17 15 -10 3 -58 30 -106 61 -48 30
-92 55 -97 55 -4 0 -10 4 -12 8 -10 28 -660 350 -690 344 -5 -1 -8 3 -8 9 0 5
-4 7 -10 4 -5 -3 -10 -1 -10 4 0 6 -5 11 -11 11 -6 0 -77 25 -158 56 -80 31
-150 57 -156 59 -10 2 -20 5 -60 21 -11 4 -22 8 -25 9 -3 0 -39 11 -80 25 -41
13 -84 25 -95 27 -11 2 -24 8 -29 13 -4 4 -15 6 -22 3 -8 -3 -14 0 -14 7 0 6
-4 8 -10 5 -5 -3 -18 -1 -28 4 -10 5 -29 12 -43 14 -13 2 -31 6 -39 9 -14 6
-108 31 -120 33 -3 1 -18 4 -35 8 -16 4 -41 10 -55 13 -14 3 -29 6 -35 8 -5 2
-28 6 -50 11 -55 11 -72 14 -95 20 -43 11 -66 16 -100 20 -42 6 -75 13 -75 15
0 1 -16 3 -35 5 -36 4 -67 9 -130 20 -19 3 -51 8 -70 10 -19 2 -57 6 -85 10
-237 29 -380 37 -683 39 -145 1 -265 0 -266 -1z"/>
</g>
</svg>
