<svg xmlns="http://www.w3.org/2000/svg" viewBox="0 0 14.17 14.17"><defs><style>.cls-1{fill:#161415;}</style></defs><g id="Pattern"><path class="cls-1" d="M8.51,10.09c-.56.57-1.37.67-2.3-.26l-1.4-1.4L3.57,7.19l.28-.29.77-.77a1.23,1.23,0,0,1,1-.42,2.16,2.16,0,0,1,1.19.69L8.47,8A1,1,0,0,0,9.82,8a1,1,0,0,0-.11-1.62L7,3.72l.51-.07L10,6.09c.75.75.84,1.56.2,2.2a1.22,1.22,0,0,1-1.45.2A1.28,1.28,0,0,1,8.51,10.09Zm-.29-.35a1,1,0,0,0,0-1.46l-1.7-1.7C5.94,6.06,5.42,6,5,6.44l-.78.79.92.91h0l1.4,1.4C7.09,10.15,7.73,10.22,8.22,9.74Z"/></g></svg>