<svg xmlns="http://www.w3.org/2000/svg" viewBox="0 0 7.04 6.88"><defs><style>.cls-1{fill:#232122;}</style></defs><g id="Layer_2" data-name="Layer 2"><g id="Pattern"><path class="cls-1" d="M4.94,6.45c-.56.56-1.36.66-2.29-.27L1.24,4.78,0,3.54l.28-.28.78-.78a1.2,1.2,0,0,1,1-.42,2.13,2.13,0,0,1,1.19.69L4.91,4.38a1,1,0,0,0,1.34,0,1,1,0,0,0-.11-1.62L3.47.07,4,0,6.42,2.44c.74.75.83,1.56.19,2.2a1.23,1.23,0,0,1-1.45.21A1.27,1.27,0,0,1,4.94,6.45Zm-.29-.36a1,1,0,0,0,0-1.46L3,2.93c-.58-.52-1.1-.61-1.57-.14l-.78.79.92.92h0L2.93,5.9C3.52,6.5,4.17,6.57,4.65,6.09Z"/></g></g></svg>