<svg xmlns="http://www.w3.org/2000/svg" xmlns:xlink="http://www.w3.org/1999/xlink" viewBox="0 0 329.61 329.61"><defs><style>.cls-1{fill:url(#New_Gradient_Swatch_3);}.cls-2{fill:none;stroke-miterlimit:10;stroke-width:13px;stroke:url(#New_Gradient_Swatch_3-2);}</style><linearGradient id="New_Gradient_Swatch_3" x1="71.99" y1="162.62" x2="238.62" y2="168.39" gradientUnits="userSpaceOnUse"><stop offset="0" stop-color="#e01e37"/><stop offset="0.21" stop-color="#da1e37"/><stop offset="0.42" stop-color="#b21e35"/><stop offset="0.66" stop-color="#717375"/><stop offset="0.89" stop-color="#35c1b0"/><stop offset="1" stop-color="#1ee0c7"/></linearGradient><linearGradient id="New_Gradient_Swatch_3-2" x1="0" y1="164.8" x2="329.61" y2="164.8" xlink:href="#New_Gradient_Swatch_3"/></defs><g id="Layer_2" data-name="Layer 2"><g id="Design"><path class="cls-1" d="M226.67,162.48C240,159.21,257,144.74,257,122.09c0-31.11-21.83-48.58-58.13-48.58H80L69.37,87.43h130c26.75,0,42,12.82,42,36.57,0,18.83-16.64,33.3-32.2,33.3H129.78c-20.2.25-35.55,4.16-45.73,12.28-9.68,7.71-14.68,19.23-14.68,35V256.1H198c45.31,0,62.23-22.11,62.23-49.4C260.24,180.77,242.77,166,226.67,162.48Zm-28.66,80H129.78v-.11H85.07v-38c0-22.92,14.69-33.35,41.5-34.77h82.36c18.83,0,35.48,13.92,35.48,35.48C244.41,228.53,226.94,242.45,198,242.45Z"/><circle class="cls-2" cx="164.8" cy="164.8" r="158.3"/></g></g></svg>